<?xml version="1.0" encoding="iso-8859-1"?>
<!-- Generator: Adobe Illustrator 16.0.0, SVG Export Plug-In . SVG Version: 6.00 Build 0)  -->
<!DOCTYPE svg PUBLIC "-//W3C//DTD SVG 1.1//EN" "http://www.w3.org/Graphics/SVG/1.1/DTD/svg11.dtd">
<svg version="1.1" id="Capa_1" xmlns="http://www.w3.org/2000/svg" xmlns:xlink="http://www.w3.org/1999/xlink" x="0px" y="0px"
	 width="42.443px" height="42.443px" viewBox="0 0 42.443 42.443" style="enable-background:new 0 0 42.443 42.443;"
	 xml:space="preserve">
<g>
	<path d="M21.222,0C9.502,0,0,9.502,0,21.223c0,11.719,9.501,21.221,21.222,21.221c11.719,0,21.221-9.502,21.221-21.223
		S32.941,0,21.222,0z M33.534,22.072c0,0.693-0.962,1.255-2.149,1.255H21.222c-1.163,0-2.105-0.942-2.105-2.104V7.252
		c0-1.186,0.561-2.149,1.254-2.149h1.254v14.095c0.828,0.166,1.455,0.792,1.62,1.62h10.289
		C33.534,20.818,33.534,21.38,33.534,22.072z"/>
</g>
<g>
</g>
<g>
</g>
<g>
</g>
<g>
</g>
<g>
</g>
<g>
</g>
<g>
</g>
<g>
</g>
<g>
</g>
<g>
</g>
<g>
</g>
<g>
</g>
<g>
</g>
<g>
</g>
<g>
</g>
</svg>
